<svg id="svg" version="1.1" width="400" height="400" xmlns="http://www.w3.org/2000/svg" xmlns:xlink="http://www.w3.org/1999/xlink" style="display: block;"><g id="svgg"><path id="path0" d="M218.118 9.152 C 213.285 17.905,211.506 26.444,212.320 36.992 C 212.905 44.579,213.275 45.929,217.260 55.000 C 231.397 87.185,263.429 102.624,299.500 94.641 C 306.281 93.140,324.000 79.607,324.000 75.929 C 324.000 75.153,320.124 76.469,314.967 78.995 C 314.124 79.408,312.099 80.035,310.467 80.390 C 308.835 80.744,306.375 81.283,305.000 81.587 C 300.271 82.633,287.494 82.809,283.000 81.891 C 280.525 81.385,277.375 80.746,276.000 80.472 C 257.118 76.704,228.691 50.571,225.511 34.056 C 225.292 32.921,224.887 31.625,224.609 31.177 C 223.418 29.250,222.515 19.820,222.700 11.250 C 222.939 0.154,223.057 0.208,218.118 9.152 M159.188 22.256 C 147.350 37.601,140.559 67.344,145.027 84.281 C 145.495 86.051,146.084 88.850,146.338 90.500 C 146.592 92.150,147.241 94.625,147.780 96.000 C 148.319 97.375,148.827 98.833,148.908 99.240 C 152.918 119.392,179.417 149.137,204.772 161.946 C 253.154 186.389,320.234 166.282,336.373 122.500 C 336.832 121.255,335.295 122.230,332.305 125.080 C 315.261 141.326,294.756 149.492,271.000 149.492 C 263.078 149.492,251.207 147.954,247.000 146.382 C 246.175 146.074,244.395 145.611,243.044 145.354 C 217.883 140.563,179.159 108.483,169.785 84.663 C 168.667 81.823,167.173 78.150,166.463 76.500 C 165.754 74.850,164.953 72.065,164.684 70.311 C 164.414 68.558,163.949 66.726,163.649 66.241 C 161.035 62.011,160.995 37.265,163.577 20.750 C 164.338 15.885,164.020 15.994,159.188 22.256 M87.783 46.250 C 77.933 58.078,69.206 73.934,67.979 82.232 C 67.920 82.634,67.425 84.434,66.881 86.232 C 53.503 130.382,78.167 192.856,122.500 227.116 C 136.793 238.162,160.867 250.963,169.500 252.107 C 170.050 252.180,171.625 252.676,173.000 253.209 C 175.351 254.120,176.618 254.468,181.500 255.543 C 240.476 268.531,299.586 244.834,326.059 197.591 L 329.370 191.683 321.535 198.249 C 309.985 207.928,289.892 218.572,279.766 220.375 C 278.263 220.643,276.688 221.073,276.266 221.332 C 275.845 221.591,273.925 222.064,272.000 222.383 C 270.075 222.702,267.375 223.207,266.000 223.505 C 256.944 225.464,234.803 226.102,224.000 224.716 C 212.190 223.200,210.433 222.924,208.500 222.284 C 206.323 221.564,205.533 221.351,202.478 220.660 C 156.711 210.313,102.059 158.564,93.518 117.489 C 92.990 114.951,92.450 112.456,91.463 108.000 C 88.703 95.534,88.719 67.805,91.495 52.500 C 93.829 39.629,93.607 39.255,87.783 46.250 M95.000 292.539 C 61.436 301.912,46.925 359.376,74.970 371.857 C 77.831 373.130,83.819 373.499,106.546 373.804 L 134.592 374.180 136.309 366.840 C 138.637 356.887,138.665 357.000,133.883 357.000 C 130.415 357.000,129.855 356.725,130.330 355.250 C 130.640 354.288,132.473 348.886,134.403 343.247 C 140.596 325.157,140.990 316.782,136.102 307.199 C 129.635 294.523,111.305 287.985,95.000 292.539 M367.752 304.750 C 365.871 307.363,359.925 315.913,354.537 323.750 C 343.456 339.869,343.835 339.570,342.211 333.500 L 341.008 329.000 331.504 329.000 C 320.253 329.000,320.708 328.010,325.063 343.000 C 328.274 354.057,329.019 363.347,327.092 368.315 C 325.328 372.862,325.571 373.000,335.303 373.000 L 344.607 373.000 347.833 365.110 C 352.008 354.897,362.693 338.654,372.696 327.313 C 373.757 326.111,375.497 323.917,376.562 322.438 C 377.628 320.959,379.437 318.568,380.582 317.124 C 382.502 314.705,389.679 304.159,391.385 301.250 C 391.952 300.283,389.748 300.000,381.644 300.000 L 371.170 300.000 367.752 304.750 M240.176 308.009 C 221.158 312.019,212.491 323.841,208.925 350.636 C 206.394 369.659,212.924 373.933,244.591 373.976 L 262.682 374.000 263.927 368.250 C 264.612 365.087,265.407 361.488,265.694 360.250 C 266.215 358.007,266.179 358.000,253.358 357.991 C 231.063 357.976,225.508 356.276,227.478 350.069 C 228.094 348.129,229.023 348.028,248.767 347.770 L 269.411 347.500 270.764 341.000 C 275.879 316.419,263.519 303.088,240.176 308.009 M40.450 310.081 C 39.831 311.082,37.116 321.554,37.036 323.250 C 37.016 323.663,41.228 324.000,46.395 324.000 L 55.790 324.000 57.303 317.255 C 58.135 313.546,58.606 310.171,58.349 309.755 C 57.609 308.558,41.207 308.857,40.450 310.081 M111.685 310.059 C 121.542 313.769,121.625 320.526,112.218 353.500 C 110.674 358.911,89.268 358.422,83.694 352.848 C 76.586 345.740,84.763 315.816,95.223 310.661 C 98.975 308.812,107.538 308.499,111.685 310.059 M153.123 310.770 C 151.401 313.987,145.912 344.115,145.338 353.500 C 144.709 363.787,146.297 367.506,153.003 371.446 C 158.171 374.481,195.478 375.250,196.376 372.339 C 196.688 371.328,199.669 357.450,203.000 341.500 C 206.331 325.550,209.300 311.712,209.596 310.750 C 210.081 309.175,209.253 309.000,201.315 309.000 L 192.496 309.000 189.158 324.250 C 187.322 332.637,184.920 343.438,183.820 348.250 L 181.821 357.000 172.910 357.000 L 164.000 357.000 164.000 349.463 C 164.000 344.987,165.055 337.224,166.598 330.344 C 168.027 323.973,169.265 316.677,169.348 314.131 L 169.500 309.500 161.807 309.209 C 155.164 308.958,153.979 309.171,153.123 310.770 M279.667 340.345 C 276.000 357.585,273.000 372.228,273.000 372.884 C 273.000 373.740,275.474 373.996,281.741 373.789 L 290.483 373.500 295.105 351.864 C 297.646 339.963,300.021 329.051,300.382 327.614 L 301.038 325.000 320.494 325.000 L 339.950 325.000 339.363 321.750 C 337.186 309.690,335.590 309.033,308.417 309.015 L 286.333 309.000 279.667 340.345 M250.881 325.750 C 252.037 326.712,253.099 328.625,253.242 330.000 L 253.500 332.500 242.250 332.783 C 229.617 333.100,229.073 332.727,234.400 327.400 C 238.456 323.344,246.966 322.492,250.881 325.750 M34.537 334.250 C 33.701 337.137,31.647 346.475,29.972 355.000 C 25.868 375.890,22.656 382.994,17.303 383.015 C 15.211 383.024,12.972 383.366,12.327 383.777 C 11.333 384.409,8.000 396.183,8.000 399.062 C 8.000 399.581,12.322 400.000,17.684 400.000 C 37.868 400.000,39.748 397.227,49.545 353.000 C 52.043 341.725,54.322 331.712,54.610 330.750 C 55.084 329.169,54.214 329.000,45.595 329.000 L 36.056 329.000 34.537 334.250 " stroke="none" fill="#000000" fill-rule="evenodd"></path></g></svg>