<?xml version="1.0" encoding="UTF-8"?>
<svg enable-background="new 0 0 825.1 825.1" version="1.1" viewBox="0 0 825.1 825.1" xml:space="preserve" xmlns="http://www.w3.org/2000/svg">
<style type="text/css">
	.st0{fill:#131B28;}
	.st1{fill:#0868AC;}
</style>
	<path class="st0" d="m254.4 696.4l-5.9 20.9 5.9-20.9zm30.3 45.3h-6.5 6.5zm-1.6 31.2l-38.9 0.1 38.9-0.1zm8.1-31.1h-6.5 6.5zm-4.7 28.4l6.8-25.8-6.8 25.8zm143.1-118.9l-12.6 59.3c-0.1 0 12.6-59.3 12.6-59.3zm-32.5 0l-9.6 44.3 9.6-44.3z"/>
	<path class="st0" d="m427.4 648.6h-27c-1.5 0-3 1.2-3.3 2.7l-9.6 44.3-9.6 44.3c-0.3 1.5-1.8 2.7-3.3 2.7h-19.1c-18.9 0-16.7-13.1-12.8-31l0.1-0.5 0.4-2.3 0.1-0.4 0.9-4.6 0.9-4.9c0.3-1.5 0.7-3.7 1-5l4.4-21.3 4.4-21.3c0.3-1.5-0.7-2.7-2.2-2.7h-27.7c-1.5 0-3 1.2-3.3 2.7l-6 28.2-6 28.2-0.6 2.6c-6.9 31.3-5 61.1 32.2 62.1h1.1 58.6c1.5 0 3-1.2 3.3-2.7l12.6-59.3 12.6-59.3c0.4-1.3-0.6-2.5-2.1-2.5zm107.6 94.3c1.5 0 2.5 1.2 2.2 2.7l-2.6 12.8m-2.7 12.7l2.6-12.8-2.6 12.8zm-3.3 2.7c-7.9 0.1-31.8 0.2-49.7 0.2 21.9 0.1 49.7-0.2 49.7-0.2zm-65.7-47.4c0-1.4 1.6-3.8 3.1-3.8l-3.4-0.1c-1.6 15.3 0.3 3.9 0.3 3.9z"/>
	<path class="st0" d="m481.4 774.1h-0.5 0.5zm53.6-31.2c1.5 0 2.5 1.2 2.2 2.7l-2.6 12.8-0.4 2.1m-40 13.5h-0.1 0.1zm-6.7 0.1h-0.4 0.4zm-2 0h-0.6 0.6zm-2 0h-0.6 0.6zm3.7 0h-1.6 1.6zm6.9-0.1h-6.5c2.1 0.1 4.3 0.1 6.5 0zm37.8-2.9l2.2-10.7-2.2 10.7zm-47 3h-1.4 1.4zm-4 0h-1.9 1.9zm2 0h-1.5 1.5zm-394.5-47.4l4.2-18.6-4.8 21.2-4.6 21.7 4-19c0.3-1.4 0.9-3.8 1.2-5.3zm50.1-78.4h-29.6c-1.5 0-3 1.2-3.3 2.7l-2.8 12.4-2.8 12.4c-0.3 1.5 0.6 2.7 2.1 2.7h29.9c1.5 0 3-1.2 3.3-2.7l2.7-12.4 2.7-12.4c0.3-1.5-0.7-2.7-2.2-2.7zm-6.4 41.3l-8.7 40.2 8.7-40.2zm-86 133.1s14.9 0.2 24.4 0.2c-7.2 0-19.1-0.1-24.4-0.2zm50.7-133.1l-4.2 18.6 4.2-18.6z"/>
	<path class="st0" d="m130 686.9h-29.9c-1.5 0-3 1.2-3.3 2.7l-4.2 18.6-4.2 18.6c-0.3 1.5-0.9 3.9-1.2 5.3l-4 19-4 19c-0.4 1.8-0.9 3.5-1.4 5.2 0 0-5.6 16.6-15 16.4h-1.2c-4.5-0.1-8.1-0.1-8.1-0.1-1.5 0-3 1.1-3.3 2.6l-3.1 13-3.1 12.8c-0.3 1.5 0.6 2.7 2.1 2.7 5.3 0.1 17.2 0.2 24.4 0.2 23.4 0 35.8-13 43.7-50.3l9.3-42.8 8.7-40.2c0.2-1.5-0.7-2.7-2.2-2.7zm424 85.7c-1.5 0-2.5-1.2-2.2-2.7l22.5-105.2m10.9 105.2l9.1-44.9-9.1 44.9z"/>
	<path class="st0" d="m552.2 771.2c-0.2-0.7-0.1-2.5 0.2-4l10.7-49.9-11.2 52.6c-0.3 1.5 0.7 2.7 2.2 2.7h2.7c-1.6 0-4.4-0.6-4.6-1.4zm31.2 0.8c-0.8 0.3-2.7 0.6-4.2 0.6h2.7c1.5 0 3-1.2 3.3-2.7l0.5-2.7c-0.2 1.5-1.4 4.4-2.3 4.8zm6.4-24.6l4-19.8-4 19.8zm88.6-75.6l1.2 5.1c0.3 1.5-0.6 2.7-2.1 2.7m-91.7 87.6l4-19.8-4 19.8zm91.3-100.7l1.2 5.2-1.2-5.2zm-83.3 61.1c0.3-1.5 0.8-3.8 1.1-5.3l4.3-20.1-4.8 22.7-0.6 2.7zm-19.1-64.6c-0.3 1.4-0.7 3.2-0.9 4.4l-10.7 49.9 11.2-52.6 0.4-1.7z"/>
	<path class="st0" d="m679.6 676.9l-1.2-5.1-1.2-5.2-0.6-2.7c-2.4-9.4-9.5-14.9-25-14.9h-24.1-22.2-24.9c-1.5 0-3 1.2-3.3 2.7l-1.1 5.2-1.3 6.2-0.4 1.7-11.2 52.6-10.7 49.9c-0.3 1.5-0.4 3.3-0.2 4s3.1 1.3 4.6 1.3h22.5c1.5 0 3.4-0.3 4.2-0.6s2-3.3 2.3-4.7l4-19.8 4-19.8 0.5-2.6 4.9-22.7 4.3-20.1c0.3-1.5 1.8-2.7 3.3-2.7h70.8c1.4-0.1 2.3-1.3 2-2.7z"/>
	<path class="st0" d="m770.7 630.7h-5.4-22.7c-1.5 0-3.4 1-4.3 2.2l-50.1 73.4c-0.8 1.2-1.8 1.1-2.1-0.4l-3.7-16.2c-0.3-1.5-1.8-2.7-3.3-2.7h-32.2c-1.5 0-2.4 1.2-2 2.6l14.4 50.6c0.4 1.4 0.4 3.8 0.1 5.3l-6.3 24.5c-0.4 1.5 0.5 2.6 2 2.6h31.9c1.5 0 3-1.2 3.4-2.6l6.3-24.5c0.4-1.5 1.4-3.6 2.3-4.8l81.3-107.9c0.9-1.2 0.4-2.2-1.1-2.2l-8.5 0.1zm-255.8 63.3c-0.2 1.6-1.7 2.8-3.2 2.8h-40.8c-1.4 0-2.1-1-1.9-2.1v-0.1-0.1l0.2-0.7c3.9-10.4 11.8-17.2 26.8-17.2 16.7-0.1 20 8.1 18.9 17.4zm-12-47.2c-52.4 0-64.8 31.8-71.8 63.9-7 32.7-6.4 63.3 47.9 63.3h1.9 0.5 3.5 0.6 1.6 0.4 6.5 0.1c14.3-0.1 28.7-0.2 34.5-0.2 1.5 0 2.9-1.2 3.3-2.7l2.2-10.7 0.4-2.1 2.6-12.8c0.3-1.5-0.7-2.7-2.2-2.7h-48.8c-19.4 0-25.1-5.2-23-20.3h77.9 0.1c1.2 0 2.4-0.9 2.8-2 0.1-0.2 0.2-0.4 0.2-0.7 11.7-43.6 8.3-73-41.2-73zm-247.7 47l-0.7 2.6-5.9 20.9-5.9 20.9c-0.4 1.4-2 2.6-3.5 2.6h-31.1c-23.6 0-29.4-18.5-23.6-45.7 5.7-27.9 17-45.2 40.3-47 31.7-2.5 38.1 19.9 30.4 45.7zm21.3 45.3s14.7-35.7 18-56.3c4.5-27.6-9.3-67.6-62.6-67.6-53 0-76 38.2-84.8 79.7-8.8 41.8 2.7 78.5 55.4 78.2l41.6-0.2 38.9-0.1c1.5 0 3-1.2 3.4-2.6l6.8-25.8c0.4-1.4-0.5-2.6-2-2.7h-6.5-6.5c-1.3 0-2-0.8-1.8-1.9 0-0.3 0.1-0.5 0.1-0.7z"/>
	<path class="st0" d="m539 715.3c0 1-0.8 1.8-1.8 1.8s-1.8-0.8-1.8-1.8 0.8-1.8 1.8-1.8 1.8 0.8 1.8 1.8z"/>
<path class="st1" d="m303.2 73.4c-39.5 56.8-37.3 132.9-6.5 193 5.2 10.1 11 19.8 17.5 29.2 5.9 8.5 12.5 18.6 20.3 25.4 2.8 3.1 5.8 6.2 8.9 9.2 0.8 0.8 1.6 1.5 2.3 2.3 2.9 2.9 5.9 5.7 9.1 8.4 0.1 0.1 0.2 0.2 0.4 0.3 0 0 0.1 0 0.1 0.1 3.4 3 7 5.9 10.6 8.7 0.8 0.6 1.6 1.2 2.4 1.9 3.6 2.8 7.3 5.5 11.1 8.1 0.1 0.1 0.2 0.2 0.3 0.2 1.7 1.2 3.4 2.2 5.1 3.3 0.8 0.5 1.6 1.1 2.4 1.6 2.7 1.7 5.4 3.4 8.2 5 0.4 0.2 0.8 0.4 1.2 0.7 2.4 1.4 4.8 2.7 7.2 4 0.9 0.5 1.7 0.9 2.6 1.3 1.7 0.9 3.4 1.8 5.1 2.6 0.3 0.1 0.5 0.2 0.8 0.4 3.5 1.7 7 3.4 10.6 4.9 0.8 0.3 1.6 0.6 2.3 1 2.9 1.2 5.8 2.4 8.7 3.5 1.2 0.5 2.5 0.9 3.7 1.4 2.6 1 5.3 1.9 8 2.8 1.2 0.4 2.4 0.8 3.6 1.2 3.8 1.2 7.5 2.7 11.5 3.3 203.4 33.7 250.5-123.2 250.5-123.2-42.4 61.1-124.6 90.3-212.3 67.5-5-1.3-10.1-2.8-15-4.5-3.9-1.3-7.9-2.7-11.7-4.1-2.9-1.1-5.8-2.3-8.7-3.5-0.8-0.3-1.6-0.6-2.3-1-3.6-1.6-7.1-3.2-10.6-4.9-1.8-0.9-3.6-1.8-5.3-2.7l-3.1-1.6c-2.3-1.2-4.5-2.5-6.7-3.8-0.5-0.3-1.1-0.6-1.6-0.9-2.8-1.6-5.5-3.3-8.2-5-0.8-0.5-1.6-1.1-2.5-1.6-1.8-1.2-3.5-2.3-5.3-3.5-3.7-2.6-7.4-5.3-11-8.1-0.8-0.7-1.7-1.3-2.5-2-38.4-30.3-68.8-71.7-83.3-118.7-15.2-48.7-11.9-103.4 14.4-147.7"/>
	<path class="st1" d="m138 146.3c-57.2 82.3-50.1 189.3-6.4 276.7 1 2.1 2.1 4.2 3.2 6.2 0.7 1.3 1.3 2.7 2 3.9 0.4 0.8 0.9 1.5 1.3 2.3 0.7 1.4 1.5 2.7 2.3 4.1 1.4 2.4 2.7 4.8 4.2 7.2l2.4 3.9c1.6 2.5 3.2 5.1 4.8 7.6 0.7 1.1 1.4 2.1 2.1 3.2 2.3 3.4 4.6 6.8 7 10.1l0.2 0.3c0.4 0.5 0.8 1.1 1.2 1.6 2.1 2.9 4.2 5.7 6.4 8.5 0.8 1 1.6 2 2.4 3.1 2.7 3.4 5.4 6.7 8.2 10 2.7 3.2 5.5 6.4 8.4 9.6 0.1 0.1 0.2 0.2 0.3 0.4 5.7 6.2 11.6 12.2 17.7 18.1 0.9 0.9 1.8 1.8 2.7 2.6 3 2.9 6.1 5.7 9.3 8.5 0.5 0.5 1.1 0.9 1.6 1.4 2.7 2.4 5.5 4.7 8.3 7 1.1 0.9 2.3 1.8 3.4 2.7l6.9 5.4 3.7 2.8c2.6 1.9 5.2 3.8 7.8 5.6 1 0.7 1.9 1.4 2.8 2 0.3 0.2 0.5 0.4 0.8 0.6 2.5 1.7 5 3.4 7.6 5 1.1 0.7 2.2 1.5 3.3 2.2 3.9 2.5 7.8 4.9 11.8 7.2l3.3 1.8c2.9 1.7 5.9 3.4 8.9 5 1.6 0.9 3.3 1.7 4.9 2.5 2.1 1.1 4.2 2.2 6.4 3.3 0.5 0.2 1 0.5 1.5 0.7 0.9 0.4 1.7 0.8 2.6 1.3 4 1.9 8.1 3.8 12.2 5.6 3.9 1.7 7.8 3.3 11.7 4.9 0.9 0.4 1.9 0.8 2.9 1.1 4.1 1.6 8.3 3.1 12.5 4.6 4.1 1.4 8.2 2.7 12.4 4l3 0.9c4.2 1.3 8.4 2.8 12.8 3.6 276.8 50.5 357.2-166.3 357.2-166.3-67.5 88-187.4 111.2-301 85.3-4.3-1-8.5-2.3-12.7-3.6-5.2-1.5-10.3-3.2-15.4-4.9l-1.7-0.6c-3.6-1.3-7.2-2.6-10.8-4l-3-1.2c-3.9-1.5-7.8-3.1-11.6-4.8-0.8-0.3-1.5-0.7-2.3-1-4.2-1.9-8.4-3.9-12.6-5.9-2.5-1.2-5.1-2.6-7.6-3.9-1.7-0.9-3.4-1.7-5.1-2.7-3.1-1.6-6.1-3.3-9.1-5.1-1-0.6-2-1.1-3.1-1.7-4-2.4-7.9-4.8-11.8-7.3-1.1-0.7-2.1-1.4-3.2-2.1-2.8-1.8-5.6-3.7-8.4-5.6-0.9-0.6-1.8-1.3-2.7-1.9-2.7-1.9-5.3-3.8-8-5.8-1.2-0.9-2.4-1.8-3.5-2.7-3.5-2.7-7-5.4-10.4-8.2-3-2.5-6-5-8.9-7.5l-1-0.8c-3.2-2.8-6.3-5.7-9.4-8.5-0.9-0.9-1.8-1.7-2.7-2.5-2.3-2.2-4.5-4.4-6.8-6.6-0.9-0.9-1.8-1.8-2.7-2.6-2.8-2.9-5.6-5.8-8.3-8.8l-0.4-0.4c-2.9-3.1-5.7-6.3-8.4-9.6-0.7-0.9-1.5-1.7-2.2-2.6-2.1-2.5-4.1-5-6-7.5-0.7-0.9-1.5-1.8-2.2-2.8-2.4-3.1-4.7-6.2-7-9.3-63.1-86-85.7-204.6-35.3-302.1"/>
	<path class="st1" d="m465.1 25.2c-24.4 35.9-26.8 80.5-9.9 120.2 17.9 42.1 54.4 75.1 97.1 90.8 1.8 0.7 3.5 1.2 5.3 1.8 0.8 0.2 1.6 0.5 2.3 0.7 2.5 0.8 5 1.7 7.6 2.2 118 22.8 150-60.6 158.5-72.8-28 40.4-75.2 50.1-133 36-4.7-1.2-9.4-2.7-14-4.3-5.7-2-11.2-4.3-16.6-6.9-10.3-4.9-20-10.9-29.1-17.8-51.6-39.2-83.7-114.1-50-175.1"/>
</svg>