<svg xmlns="http://www.w3.org/2000/svg" xmlns:xlink="http://www.w3.org/1999/xlink" x="0px" y="0px" viewBox="0 0 326 326" width="70%" height="70%">
  <g transform="translate(0.000006234645752556389, 0.000006234645752556389) scale(3.1208476716129643)" fill="#fff">
    <path d="M52.3 104.6a52.3 52.3 0 1 1 52.3-52.3 52.4 52.4 0 0 1-52.3 52.3zm0-102.3a50 50 0 1 0 50 50 50 50 0 0 0-50-50z"></path>
  </g>
  <g fill="#fff" transform="translate(78.68495017447364, 47.063946056287065) scale(6.816297660165568)">
    <path d="M5.48 10 q3 0 4.59 1.1 t1.59 3.36 q0 2.82 -2.78 3.82 q0.38 0.46 0.86 1.12 t0.98 1.43 t0.96 1.58 t0.82 1.59 l-2.82 0 q-0.38 -0.72 -0.82 -1.45 t-0.89 -1.42 t-0.89 -1.3 t-0.82 -1.09 q-0.28 0.02 -0.48 0.02 l-0.38 0 l-1.22 0 l0 5.24 l-2.52 0 l0 -13.66 q0.92 -0.2 1.96 -0.27 t1.86 -0.07 z M5.66 12.18 q-0.8 0 -1.48 0.06 l0 4.48 l1.1 0 q0.92 0 1.62 -0.1 t1.17 -0.36 t0.71 -0.7 t0.24 -1.12 q0 -0.64 -0.24 -1.08 t-0.69 -0.7 t-1.07 -0.37 t-1.36 -0.11 z M17.82 22.12 q1.36 0 1.98 -0.46 t0.62 -1.3 q0 -0.5 -0.21 -0.86 t-0.6 -0.65 t-0.95 -0.54 t-1.28 -0.49 q-0.72 -0.26 -1.39 -0.57 t-1.18 -0.77 t-0.82 -1.1 t-0.31 -1.54 q0 -1.88 1.3 -2.95 t3.54 -1.07 q1.3 0 2.31 0.29 t1.59 0.63 l-0.78 2.04 q-0.68 -0.38 -1.49 -0.58 t-1.67 -0.2 q-1.02 0 -1.59 0.42 t-0.57 1.18 q0 0.46 0.19 0.79 t0.54 0.59 t0.82 0.48 t1.03 0.42 q0.98 0.36 1.75 0.73 t1.3 0.88 t0.81 1.2 t0.28 1.67 q0 1.88 -1.33 2.91 t-3.89 1.03 q-0.86 0 -1.57 -0.11 t-1.26 -0.27 t-0.95 -0.33 t-0.64 -0.31 l0.74 -2.06 q0.54 0.3 1.46 0.6 t2.22 0.3 z"></path>
  </g>
</svg>