<?xml version="1.0" standalone="no"?>
<!DOCTYPE svg PUBLIC "-//W3C//DTD SVG 20010904//EN"
 "http://www.w3.org/TR/2001/REC-SVG-20010904/DTD/svg10.dtd">
<svg version="1.0" xmlns="http://www.w3.org/2000/svg"
 width="737.000000pt" height="737.000000pt" viewBox="0 0 737.000000 737.000000"
 preserveAspectRatio="xMidYMid meet">
<metadata>
Created by potrace 1.11, written by Peter Selinger 2001-2013
</metadata>
<g transform="translate(0.000000,737.000000) scale(0.100000,-0.100000)"
fill="#000000" stroke="none">
<path d="M4489 4815 c-2 -2 -22 -6 -44 -9 -22 -4 -65 -14 -95 -23 -30 -9 -57
-17 -60 -18 -3 0 -31 -12 -62 -27 -164 -76 -292 -216 -341 -373 -30 -97 -30
-243 2 -336 54 -163 181 -290 382 -382 95 -44 328 -145 442 -191 214 -85 280
-154 281 -287 0 -75 -25 -133 -75 -180 -34 -31 -118 -75 -164 -85 -55 -11
-239 -13 -295 -3 -129 25 -277 93 -396 183 l-72 53 -60 -71 c-33 -39 -71 -83
-85 -98 -14 -15 -38 -44 -53 -64 l-28 -36 24 -20 c14 -11 36 -29 50 -41 89
-76 227 -150 365 -196 88 -29 106 -34 210 -51 69 -11 276 -10 355 2 165 26
333 105 440 209 123 119 182 257 182 424 0 117 -12 175 -54 265 -37 78 -152
197 -241 249 -55 32 -332 154 -562 247 -203 82 -280 158 -276 272 5 164 151
258 390 251 140 -4 267 -46 399 -133 l80 -52 101 124 100 124 -41 35 c-113 94
-264 173 -406 210 -79 21 -124 27 -243 29 -81 1 -148 1 -150 -1z"/>
<path d="M2011 3686 l0 -1096 194 0 c107 0 195 3 196 8 0 4 1 196 2 427 l2
420 158 0 c87 0 161 -2 165 -5 4 -3 15 -21 26 -40 22 -41 136 -252 179 -330
17 -30 41 -75 55 -100 14 -25 40 -72 58 -105 72 -132 94 -172 121 -222 l27
-53 223 0 222 0 -88 153 c-48 83 -90 159 -94 167 -4 8 -13 24 -20 35 -50 83
-318 557 -315 559 1 1 23 11 48 21 75 31 176 102 230 163 49 54 113 169 124
222 3 14 8 36 12 50 14 52 13 274 -2 343 -35 166 -141 304 -296 383 -48 24
-180 66 -253 79 -22 4 -250 10 -507 12 l-467 4 0 -1095z m904 760 c72 -20 152
-60 177 -89 52 -61 76 -147 72 -252 -8 -191 -116 -302 -329 -339 -28 -5 -196
-8 -361 -7 l-71 1 0 354 0 354 226 -3 c171 -2 241 -7 286 -19z"/>
<path d="M1550 4426 c-8 -7 -121 -87 -250 -177 -129 -89 -268 -185 -308 -213
-40 -28 -80 -55 -90 -61 -9 -5 -19 -12 -22 -16 -3 -3 -34 -25 -70 -50 -36 -24
-67 -46 -70 -49 -3 -3 -45 -32 -93 -65 -181 -123 -162 -103 -162 -171 l-1 -61
105 -74 c58 -40 108 -76 111 -79 3 -3 13 -9 22 -15 14 -8 269 -185 513 -356
33 -23 96 -67 140 -97 44 -31 108 -75 143 -100 60 -42 62 -43 63 -20 1 26 1
110 0 120 -1 4 -54 43 -118 88 -65 45 -145 100 -178 123 -33 23 -150 105 -260
181 -299 208 -358 249 -385 268 -15 11 -21 21 -15 27 8 7 374 264 615 431 19
14 157 109 262 183 l83 57 -2 63 c0 34 -2 65 -2 70 -2 11 -15 8 -31 -7z"/>
<path d="M5789 4403 c-10 -102 -14 -97 169 -224 510 -353 792 -551 792 -558 0
-4 -59 -47 -130 -96 -72 -50 -182 -126 -245 -170 -63 -44 -220 -154 -350 -244
-255 -178 -238 -159 -236 -260 0 -24 1 -45 3 -46 2 -2 427 290 490 337 10 7
53 38 97 68 45 30 176 122 293 203 l213 148 0 60 1 60 -203 142 c-112 78 -281
196 -376 262 -336 236 -508 355 -512 355 -1 0 -4 -17 -6 -37z"/>
</g>
</svg>
