<?xml version="1.0" encoding="UTF-8"?>
<!DOCTYPE svg  PUBLIC '-//W3C//DTD SVG 1.1//EN'  'http://www.w3.org/Graphics/SVG/1.1/DTD/svg11.dtd'>
<svg width="297.45px" height="419.88px" enable-background="new 0 0 297.45 419.877" version="1.1" viewBox="0 0 297.45 419.877" xml:space="preserve" xmlns="http://www.w3.org/2000/svg">
<polygon points="27.07 386.16 0 82.536 297.45 82.536 270.35 386.11 148.54 419.88" fill="#fc3"/>
<polygon points="148.72 394.06 247.15 366.78 270.31 107.36 148.72 107.36" fill="#F8DC3D"/>
	<g fill="#fff">
		<polygon points="148.93 209.97 148.93 247.21 194.78 257.21 190.46 305.5 148.93 316.71 148.93 355.45 225.27 334.3 225.83 328 235.49 229.97"/>
		<polygon points="224.93 142.74 148.59 121.58 148.59 160.32 224.97 181.84"/>
	</g>
			<polygon points="149.06 209.97 100.8 219.97 107.08 171.5 148.55 160.31 148.72 160.35 148.72 121.61 148.54 121.56 72.264 142.74 62.424 219.97 62.406 219.97 62.412 220.05 62.406 220.1 62.418 220.1 65.727 257.21 65.908 257.21 72.607 334.3 148.89 355.47 149.06 355.42 149.06 316.68 148.9 316.72 107.42 305.52 103.28 257.21 149.06 247.21" fill="#EBEBEB"/>
<g fill="#131313">
	<polygon points="201.42 15.547 176.73 15.547 202.41 43.406 202.41 56.666 149.52 56.666 149.52 41.141 175.19 41.141 149.52 13.281 149.52 0 201.42 0"/>
	<polygon points="138.91 16.178 138.91 0 93.342 0 93.342 56.666 138.91 56.666 138.91 40.491 112.28 40.491 112.28 34.839 137.91 34.839 137.91 21.828 112.28 21.828 112.28 16.178"/>
</g>
</svg>