<svg width="70" height="70" viewBox="0 0 70 70" fill="none" xmlns="http://www.w3.org/2000/svg">
<path d="M35 0C15.7773 0 0 15.7773 0 35C0 51.4062 11.5117 66.3086 26.7969 70V58.4199C25.2793 58.748 23.8848 58.7617 22.3398 58.3105C20.2754 57.6953 18.5938 56.3281 17.3496 54.2227C16.5566 52.8828 15.1484 51.4199 13.6719 51.5293L13.3164 47.4414C16.502 47.168 19.25 49.3828 20.877 52.1172C21.6016 53.334 22.4355 54.0586 23.502 54.373C24.541 54.6738 25.6484 54.5371 26.9473 54.0723C27.2754 51.4746 28.4648 50.5039 29.3535 49.1367C20.2344 47.7832 16.5977 42.9434 15.1621 39.1289C13.248 34.0566 14.2734 27.7266 17.6504 23.7207C17.7188 23.6387 17.8281 23.4336 17.7871 23.2969C16.2422 18.6211 18.1289 14.752 18.1973 14.3281C19.9883 14.8613 20.2754 13.7949 25.9629 17.2539L26.9473 17.8418C27.3574 18.0879 27.2344 17.9512 27.6445 17.9102C30.0234 17.2676 32.5254 16.9121 34.9863 16.8711C37.4746 16.8984 39.9629 17.2539 42.4375 17.9375L42.752 17.9648C42.7246 17.9648 42.834 17.9512 43.0254 17.8281C50.1348 13.5215 49.875 14.9297 51.7754 14.3145C51.8438 14.7246 53.7031 18.6621 52.1719 23.2832C51.9668 23.9258 58.3379 29.75 54.7969 39.1152C53.3613 42.9297 49.7246 47.7695 40.6055 49.1367C41.7676 50.9141 43.1758 51.8711 43.1758 55.5352V70C58.4609 66.3086 69.9727 51.4062 69.9727 35C70 15.7773 54.2227 0 35 0Z" fill="white" fill-opacity="0.9"/>
</svg>
