<svg width="75" height="73" viewBox="0 0 75 73" fill="none" xmlns="http://www.w3.org/2000/svg">
<path fill-rule="evenodd" clip-rule="evenodd" d="M37.5 0C16.7945 0 0 16.7579 0 37.4182C0 53.9465 10.8129 67.9497 25.5368 73C27.3773 73.2296 28.0675 72.0818 28.0675 71.1635C28.0675 70.2453 28.0675 67.9497 28.0675 64.7359C17.7147 67.0315 15.4141 59.6855 15.4141 59.6855C13.8037 55.3239 11.273 54.1761 11.273 54.1761C7.82209 51.8805 11.5031 51.8805 11.5031 51.8805C15.1841 52.1101 17.2546 55.783 17.2546 55.783C20.7055 61.522 25.9969 59.9151 28.0675 58.9969C28.2976 56.4717 29.4479 54.8648 30.3681 53.9465C22.0859 53.0283 13.3436 49.8145 13.3436 35.3522C13.3436 31.2201 14.7239 28.0063 17.2546 25.2516C17.0245 24.5629 15.6442 20.6604 17.7147 15.6101C17.7147 15.6101 20.9356 14.6918 28.0675 19.5126C31.0583 18.5943 34.2791 18.3648 37.5 18.3648C40.7209 18.3648 43.9417 18.8239 46.9325 19.5126C54.0644 14.6918 57.2853 15.6101 57.2853 15.6101C59.3558 20.6604 57.9755 24.5629 57.7454 25.4811C60.046 28.0063 61.6565 31.4497 61.6565 35.5818C61.6565 50.044 52.9141 53.0283 44.6319 53.9465C46.0123 55.0943 47.1626 57.3899 47.1626 60.8333C47.1626 65.8836 47.1626 69.7862 47.1626 71.1635C47.1626 72.0818 47.8528 73.2296 49.6933 73C64.6473 67.9497 75.2301 53.9465 75.2301 37.4182C75 16.7579 58.2055 0 37.5 0Z" fill="#231E1B"/>
</svg>
