<?xml version="1.0" encoding="UTF-8"?>
<svg width="70%" height="70%" viewBox="0 0 326 326" xmlns="http://www.w3.org/2000/svg">
<g transform="translate(6.2346e-6 6.2346e-6) scale(3.1208)" fill="#fff">
<path d="M52.3 104.6a52.3 52.3 0 1 1 52.3-52.3 52.4 52.4 0 0 1-52.3 52.3zm0-102.3a50 50 0 1 0 50 50 50 50 0 0 0-50-50z"/>
</g>
<g transform="translate(78.685 47.064) scale(6.8163)" fill="#fff">
<path d="m5.48 10q3 0 4.59 1.1t1.59 3.36q0 2.82-2.78 3.82 0.38 0.46 0.86 1.12t0.98 1.43 0.96 1.58 0.82 1.59h-2.82q-0.38-0.72-0.82-1.45t-0.89-1.42-0.89-1.3-0.82-1.09q-0.28 0.02-0.48 0.02h-0.38-1.22v5.24h-2.52v-13.66q0.92-0.2 1.96-0.27t1.86-0.07zm0.18 2.18q-0.8 0-1.48 0.06v4.48h1.1q0.92 0 1.62-0.1t1.17-0.36 0.71-0.7 0.24-1.12q0-0.64-0.24-1.08t-0.69-0.7-1.07-0.37-1.36-0.11zm12.16 9.94q1.36 0 1.98-0.46t0.62-1.3q0-0.5-0.21-0.86t-0.6-0.65-0.95-0.54-1.28-0.49q-0.72-0.26-1.39-0.57t-1.18-0.77-0.82-1.1-0.31-1.54q0-1.88 1.3-2.95t3.54-1.07q1.3 0 2.31 0.29t1.59 0.63l-0.78 2.04q-0.68-0.38-1.49-0.58t-1.67-0.2q-1.02 0-1.59 0.42t-0.57 1.18q0 0.46 0.19 0.79t0.54 0.59 0.82 0.48 1.03 0.42q0.98 0.36 1.75 0.73t1.3 0.88 0.81 1.2 0.28 1.67q0 1.88-1.33 2.91t-3.89 1.03q-0.86 0-1.57-0.11t-1.26-0.27-0.95-0.33-0.64-0.31l0.74-2.06q0.54 0.3 1.46 0.6t2.22 0.3z"/>
</g>
</svg>