<svg width="96" height="96" viewBox="0 0 96 96" fill="none" xmlns="http://www.w3.org/2000/svg">
<path fill-rule="evenodd" clip-rule="evenodd" d="M48 96C74.5097 96 96 74.5097 96 48C96 21.4903 74.5097 0 48 0C21.4903 0 0 21.4903 0 48C0 74.5097 21.4903 96 48 96ZM26 53C28.7614 53 31 50.7614 31 48C31 45.2386 28.7614 43 26 43C23.2386 43 21 45.2386 21 48C21 50.7614 23.2386 53 26 53ZM53 48C53 50.7614 50.7614 53 48 53C45.2386 53 43 50.7614 43 48C43 45.2386 45.2386 43 48 43C50.7614 43 53 45.2386 53 48ZM70 53C72.7614 53 75 50.7614 75 48C75 45.2386 72.7614 43 70 43C67.2386 43 65 45.2386 65 48C65 50.7614 67.2386 53 70 53Z" fill="white" fill-opacity="0.9"/>
</svg>
