<?xml version="1.0" encoding="utf-8"?>
<!-- Generator: Adobe Illustrator 21.0.2, SVG Export Plug-In . SVG Version: 6.00 Build 0)  -->
<svg version="1.1" id="Layer_1" xmlns="http://www.w3.org/2000/svg" xmlns:xlink="http://www.w3.org/1999/xlink" x="0px" y="0px"
	 viewBox="0 0 100 50" style="enable-background:new 0 0 100 50;" xml:space="preserve">
<style type="text/css">
	.st0{display:none;fill:#192847;}
	.st1{fill:#FFFFFF;}
	.st2{fill:#192847;}
</style>
<rect x="-1247" y="-322.9" class="st0" width="737" height="737"/>
<g>
	<g>
		<path class="st1" d="M-927.2,155l-46.9-85.7h-32.8V155h-38.8V-63.9h73c11.4,0,22,1.1,31.8,3.3c9.8,2.2,18.4,5.9,25.6,10.9
			c7.2,5,12.9,11.7,17.1,19.9c4.1,8.3,6.2,18.5,6.2,30.8c0,16.7-4,30.2-11.9,40.5c-7.9,10.3-18.5,17.6-31.6,22.1l52.2,91.4H-927.2z
			 M-1006.9,38.5h30.1c15.2,0,26.7-3.1,34.6-9.4c7.9-6.2,11.9-15.6,11.9-28.1c0-12.7-4-21.5-11.9-26.4c-7.9-4.9-19.5-7.4-34.6-7.4
			h-30.1V38.5z"/>
		<path class="st1" d="M-847.6,100.5c8.3,7.4,17.6,13.3,28,17.9c10.4,4.6,20.9,6.9,31.6,6.9c13.4,0,23.5-2.6,30.5-7.7
			c6.9-5.1,10.4-11.9,10.4-20.4c0-4.5-0.9-8.3-2.7-11.4c-1.8-3.1-4.3-5.9-7.5-8.2c-3.2-2.3-7.1-4.5-11.7-6.5c-4.6-2-9.5-4-14.9-6
			l-29.8-13.1c-5.8-2.2-11.5-5-17.1-8.4c-5.6-3.3-10.6-7.4-15.1-12.1c-4.5-4.7-8-10.2-10.7-16.4c-2.7-6.2-4-13.4-4-21.4
			c0-8.7,1.9-16.8,5.7-24.3c3.8-7.5,9-14,15.7-19.6c6.7-5.6,14.7-9.9,23.9-13.1c9.3-3.1,19.5-4.7,30.6-4.7c13.4,0,26.2,2.5,38.3,7.5
			c12.2,5,22.8,11.8,32,20.3l-20.1,24.8c-7.4-5.8-15.1-10.4-23.1-13.7s-17.1-5-27.1-5c-11.4,0-20.4,2.3-26.9,6.9
			c-6.6,4.6-9.9,10.9-9.9,18.9c0,4.2,1,7.9,3,10.9c2,3,4.7,5.7,8.2,8c3.5,2.3,7.5,4.4,12.1,6.2c4.6,1.8,9.3,3.7,14.2,5.7l28.8,12.4
			c6.9,2.7,13.3,5.8,19.1,9.4c5.8,3.6,10.8,7.7,15.1,12.4c4.2,4.7,7.5,10.1,9.9,16.2c2.3,6.1,3.5,13.2,3.5,21.3
			c0,8.9-1.8,17.3-5.5,25.1c-3.7,7.8-9,14.7-15.9,20.6c-6.9,5.9-15.4,10.6-25.4,14.1c-10,3.5-21.4,5.2-34.1,5.2
			c-15.4,0-30.1-2.8-44.2-8.4c-14.1-5.6-26.6-13.5-37.5-23.8L-847.6,100.5z"/>
	</g>
	<g>
		<path class="st1" d="M-1198.3,45.8l109.4-76.1v14.4l-96.5,67.2v1.2l96.5,67.2V134l-109.4-76.1V45.8z"/>
		<path class="st1" d="M-558.7,57.8L-668.1,134v-14.4l96.5-67.2v-1.2l-96.5-67.2v-14.4l109.4,76.1V57.8z"/>
	</g>
</g>
<g>
	<g>
		<path class="st2" d="M-1730.2,155l-46.9-85.7h-32.8V155h-38.8V-63.9h73c11.4,0,22,1.1,31.8,3.3c9.8,2.2,18.4,5.9,25.6,10.9
			c7.2,5,12.9,11.7,17.1,19.9c4.1,8.3,6.2,18.5,6.2,30.8c0,16.7-4,30.2-11.9,40.5c-7.9,10.3-18.5,17.6-31.6,22.1l52.2,91.4H-1730.2z
			 M-1809.9,38.5h30.1c15.2,0,26.7-3.1,34.6-9.4c7.9-6.2,11.9-15.6,11.9-28.1c0-12.7-4-21.5-11.9-26.4c-7.9-4.9-19.5-7.4-34.6-7.4
			h-30.1V38.5z"/>
		<path class="st2" d="M-1650.6,100.5c8.3,7.4,17.6,13.3,28,17.9c10.4,4.6,20.9,6.9,31.6,6.9c13.4,0,23.5-2.6,30.5-7.7
			c6.9-5.1,10.4-11.9,10.4-20.4c0-4.5-0.9-8.3-2.7-11.4c-1.8-3.1-4.3-5.9-7.5-8.2c-3.2-2.3-7.1-4.5-11.7-6.5c-4.6-2-9.5-4-14.9-6
			l-29.8-13.1c-5.8-2.2-11.5-5-17.1-8.4c-5.6-3.3-10.6-7.4-15.1-12.1c-4.5-4.7-8-10.2-10.7-16.4c-2.7-6.2-4-13.4-4-21.4
			c0-8.7,1.9-16.8,5.7-24.3c3.8-7.5,9-14,15.7-19.6c6.7-5.6,14.7-9.9,23.9-13.1c9.3-3.1,19.5-4.7,30.6-4.7c13.4,0,26.2,2.5,38.3,7.5
			c12.2,5,22.8,11.8,32,20.3l-20.1,24.8c-7.4-5.8-15.1-10.4-23.1-13.7c-8-3.3-17.1-5-27.1-5c-11.4,0-20.4,2.3-26.9,6.9
			c-6.6,4.6-9.9,10.9-9.9,18.9c0,4.2,1,7.9,3,10.9c2,3,4.7,5.7,8.2,8c3.5,2.3,7.5,4.4,12.1,6.2c4.6,1.8,9.3,3.7,14.2,5.7l28.8,12.4
			c6.9,2.7,13.3,5.8,19.1,9.4c5.8,3.6,10.8,7.7,15.1,12.4c4.2,4.7,7.5,10.1,9.9,16.2c2.3,6.1,3.5,13.2,3.5,21.3
			c0,8.9-1.8,17.3-5.5,25.1c-3.7,7.8-9,14.7-15.9,20.6c-6.9,5.9-15.4,10.6-25.4,14.1c-10,3.5-21.4,5.2-34.1,5.2
			c-15.4,0-30.1-2.8-44.2-8.4c-14.1-5.6-26.6-13.5-37.5-23.8L-1650.6,100.5z"/>
	</g>
	<g>
		<path class="st2" d="M-2001.3,45.9l109.4-76.1v14.4l-96.5,67.2v1.2l96.5,67.2V134l-109.4-76.1V45.9z"/>
		<path class="st2" d="M-1361.7,57.8l-109.4,76.1v-14.4l96.5-67.2v-1.2l-96.5-67.2v-14.4l109.4,76.1V57.8z"/>
	</g>
</g>
<g>
	<path class="st2" d="M-1722.1,975.8l-46.9-85.7h-32.8v85.7h-38.8V756.9h73c11.4,0,22,1.1,31.8,3.3c9.8,2.2,18.4,5.9,25.6,10.9
		c7.2,5,12.9,11.7,17.1,19.9c4.1,8.3,6.2,18.5,6.2,30.8c0,16.7-4,30.2-11.9,40.5c-7.9,10.3-18.5,17.6-31.6,22.1l52.2,91.4H-1722.1z
		 M-1801.8,859.3h30.1c15.2,0,26.7-3.1,34.6-9.4c7.9-6.2,11.9-15.6,11.9-28.1c0-12.7-4-21.5-11.9-26.4c-7.9-4.9-19.5-7.4-34.6-7.4
		h-30.1V859.3z"/>
	<path class="st2" d="M-1642.5,921.3c8.3,7.4,17.6,13.3,28,17.9c10.4,4.6,20.9,6.9,31.6,6.9c13.4,0,23.5-2.6,30.5-7.7
		c6.9-5.1,10.4-11.9,10.4-20.4c0-4.5-0.9-8.3-2.7-11.4c-1.8-3.1-4.3-5.9-7.5-8.2c-3.2-2.3-7.1-4.5-11.7-6.5c-4.6-2-9.5-4-14.9-6
		l-29.8-13.1c-5.8-2.2-11.5-5-17.1-8.4c-5.6-3.3-10.6-7.4-15.1-12.1c-4.5-4.7-8-10.2-10.7-16.4c-2.7-6.2-4-13.4-4-21.4
		c0-8.7,1.9-16.8,5.7-24.3c3.8-7.5,9-14,15.7-19.6c6.7-5.6,14.7-9.9,23.9-13.1c9.3-3.1,19.5-4.7,30.6-4.7c13.4,0,26.2,2.5,38.3,7.5
		c12.2,5,22.8,11.8,32,20.3l-20.1,24.8c-7.4-5.8-15.1-10.4-23.1-13.7c-8-3.3-17.1-5-27.1-5c-11.4,0-20.4,2.3-26.9,6.9
		c-6.6,4.6-9.9,10.9-9.9,18.9c0,4.2,1,7.9,3,10.9c2,3,4.7,5.7,8.2,8c3.5,2.3,7.5,4.4,12.1,6.2c4.6,1.8,9.3,3.7,14.2,5.7l28.8,12.4
		c6.9,2.7,13.3,5.8,19.1,9.4c5.8,3.6,10.8,7.7,15.1,12.4c4.2,4.7,7.5,10.1,9.9,16.2c2.3,6.1,3.5,13.2,3.5,21.3
		c0,8.9-1.8,17.3-5.5,25.1c-3.7,7.8-9,14.7-15.9,20.6c-6.9,5.9-15.4,10.6-25.4,14.1c-10,3.5-21.4,5.2-34.1,5.2
		c-15.4,0-30.1-2.8-44.2-8.4c-14.1-5.6-26.6-13.5-37.5-23.8L-1642.5,921.3z"/>
</g>
<g>
	<path class="st2" d="M-1967.3,715.9h92.8v10.5h-79.1v280h79.1v10.5h-92.8V715.9z"/>
	<path class="st2" d="M-1405.5,1006.4v-280h-79.1v-10.5h92.8v301h-92.8v-10.5H-1405.5z"/>
</g>
<g>
	<path class="st2" d="M-1720.6,1797.6l-46.9-85.7h-32.8v85.7h-38.8v-218.9h73c11.4,0,22,1.1,31.8,3.3c9.8,2.2,18.4,5.9,25.6,10.9
		c7.2,5,12.9,11.7,17.1,19.9c4.1,8.3,6.2,18.5,6.2,30.8c0,16.7-4,30.2-11.9,40.5c-7.9,10.3-18.5,17.6-31.6,22.1l52.2,91.4H-1720.6z
		 M-1800.3,1681.1h30.1c15.2,0,26.7-3.1,34.6-9.4c7.9-6.2,11.9-15.6,11.9-28.1c0-12.7-4-21.5-11.9-26.4c-7.9-4.9-19.5-7.4-34.6-7.4
		h-30.1V1681.1z"/>
	<path class="st2" d="M-1640.9,1743c8.3,7.4,17.6,13.3,28,17.9c10.4,4.6,20.9,6.9,31.6,6.9c13.4,0,23.5-2.6,30.5-7.7
		c6.9-5.1,10.4-11.9,10.4-20.4c0-4.5-0.9-8.3-2.7-11.4c-1.8-3.1-4.3-5.9-7.5-8.2c-3.2-2.3-7.1-4.5-11.7-6.5c-4.6-2-9.5-4-14.9-6
		l-29.8-13.1c-5.8-2.2-11.5-5-17.1-8.4c-5.6-3.3-10.6-7.4-15.1-12.1c-4.5-4.7-8-10.2-10.7-16.4c-2.7-6.2-4-13.4-4-21.4
		c0-8.7,1.9-16.8,5.7-24.3c3.8-7.5,9-14,15.7-19.6c6.7-5.6,14.7-9.9,23.9-13.1c9.3-3.1,19.5-4.7,30.6-4.7c13.4,0,26.2,2.5,38.3,7.5
		c12.2,5,22.8,11.8,32,20.3l-20.1,24.8c-7.4-5.8-15.1-10.4-23.1-13.7c-8-3.3-17.1-5-27.1-5c-11.4,0-20.4,2.3-26.9,6.9
		c-6.6,4.6-9.9,10.9-9.9,18.9c0,4.2,1,7.9,3,10.9c2,3,4.7,5.7,8.2,8c3.5,2.3,7.5,4.4,12.1,6.2c4.6,1.8,9.3,3.7,14.2,5.7l28.8,12.4
		c6.9,2.7,13.3,5.8,19.1,9.4c5.8,3.6,10.8,7.7,15.1,12.4c4.2,4.7,7.5,10.1,9.9,16.2c2.3,6.1,3.5,13.2,3.5,21.3
		c0,8.9-1.8,17.3-5.5,25.1c-3.7,7.8-9,14.7-15.9,20.6c-6.9,5.9-15.4,10.6-25.4,14.1c-10,3.5-21.4,5.2-34.1,5.2
		c-15.4,0-30.1-2.8-44.2-8.4c-14.1-5.6-26.6-13.5-37.5-23.8L-1640.9,1743z"/>
</g>
<g>
	<path class="st2" d="M-1932.2,1561.4c-9.6,5.5-14.5,16.3-14.5,31.9c0,10.5,0.5,21.4,1.4,32.4c0.9,11,1.4,21.6,1.4,31.4
		c0,3-0.6,6-1.8,9c-1.2,2.9-3.4,5.5-6.6,7.7c-3.2,2.2-7.9,4.1-13.9,5.5c-6,1.4-13.9,2.2-23.3,2.2h-0.5v10.9h0.5
		c9.4,0,17.2,0.7,23.3,2.2c6,1.4,10.7,3.3,13.9,5.5c3.2,2.2,5.4,4.8,6.6,7.7c1.2,2.9,1.8,5.9,1.8,9c0,10.9-0.5,21.5-1.4,31.4
		c-0.9,10-1.4,20.9-1.4,32.4c0,15.6,4.9,26.4,14.5,31.9c9.5,5.5,24,8.3,43,8.3h16.6v-10.3h-18.5c-8.6,0-15.8-0.6-21.3-1.8
		c-5.5-1.2-9.8-3.1-12.8-5.6c-3-2.5-5.1-5.7-6.2-9.5c-1.1-3.9-1.7-8.6-1.7-14.1c0-10.3,0.4-20.1,1.1-29.1c0.7-9.1,1.1-19.3,1.1-30.4
		c0-9.1-1.9-16.5-5.5-21.8c-3.6-5.3-10.6-8.9-20.8-10.8v-0.4c10.2-1.9,17.2-5.5,20.8-10.8c3.7-5.3,5.5-12.7,5.5-21.8
		c0-9.9-0.4-20-1.1-30.3c-0.7-10.1-1.1-20-1.1-29.3c0-5.5,0.6-10.3,1.7-14.1c1.1-3.8,3.2-7,6.2-9.5c3-2.5,7.3-4.4,12.8-5.6
		c5.5-1.2,12.7-1.8,21.3-1.8h18.5v-10.3h-16.6C-1908.2,1553.1-1922.7,1555.9-1932.2,1561.4z"/>
	<path class="st2" d="M-1372.5,1681.4c-9.4,0-17.2-0.7-23.1-2.2c-5.9-1.4-10.5-3.3-13.8-5.5c-3.2-2.2-5.4-4.8-6.6-7.7
		c-1.2-2.9-1.8-5.9-1.8-9c0-9.9,0.4-20.5,1.2-31.4c0.8-11.1,1.2-22,1.2-32.4c0-15.6-4.8-26.3-14.2-31.9c-9.3-5.5-23.8-8.3-43-8.3
		h-16.6v10.3h18.5c8.6,0,15.8,0.6,21.3,1.8c5.5,1.2,9.8,3.1,13,5.6c3.1,2.5,5.3,5.7,6.5,9.5c1.2,3.9,1.8,8.6,1.8,14.1
		c0,9.2-0.4,19-1.2,29.3c-0.8,10.2-1.2,20.4-1.2,30.3c0,9.2,1.8,16.5,5.4,21.8c3.5,5.3,10.5,8.9,20.7,10.8v0.4
		c-10.2,1.9-17.2,5.6-20.7,11c-3.6,5.4-5.4,12.7-5.4,21.7c0,11.1,0.4,21.4,1.2,30.4c0.8,9.1,1.2,18.9,1.2,29.1
		c0,5.5-0.6,10.2-1.8,14.1c-1.2,3.8-3.4,7-6.5,9.5c-3.1,2.5-7.5,4.4-13,5.6c-5.5,1.2-12.7,1.8-21.3,1.8h-18.5v10.3h16.6
		c19.2,0,33.7-2.8,43-8.3c9.4-5.5,14.2-16.3,14.2-31.9c0-11.5-0.4-22.4-1.2-32.4c-0.8-9.9-1.2-20.5-1.2-31.4c0-3,0.6-6,1.8-9
		c1.2-2.9,3.4-5.5,6.6-7.7c3.2-2.2,7.9-4.1,13.8-5.5c5.9-1.4,13.7-2.2,23.1-2.2h0.5v-10.9H-1372.5z"/>
</g>
<g>
	<g>
		<path class="st1" d="M42.7,41.4l-7-12.8h-4.9v12.8H25V8.6h10.9c1.7,0,3.3,0.2,4.8,0.5c1.5,0.3,2.7,0.9,3.8,1.6
			c1.1,0.8,1.9,1.7,2.6,3c0.6,1.2,0.9,2.8,0.9,4.6c0,2.5-0.6,4.5-1.8,6.1c-1.2,1.5-2.8,2.6-4.7,3.3l7.8,13.7H42.7z M30.8,23.9h4.5
			c2.3,0,4-0.5,5.2-1.4c1.2-0.9,1.8-2.3,1.8-4.2c0-1.9-0.6-3.2-1.8-4c-1.2-0.7-2.9-1.1-5.2-1.1h-4.5V23.9z"/>
		<path class="st1" d="M54.6,33.2c1.2,1.1,2.6,2,4.2,2.7c1.6,0.7,3.1,1,4.7,1c2,0,3.5-0.4,4.6-1.2c1-0.8,1.6-1.8,1.6-3.1
			c0-0.7-0.1-1.2-0.4-1.7c-0.3-0.5-0.6-0.9-1.1-1.2c-0.5-0.4-1.1-0.7-1.8-1c-0.7-0.3-1.4-0.6-2.2-0.9l-4.5-2
			c-0.9-0.3-1.7-0.8-2.6-1.3c-0.8-0.5-1.6-1.1-2.3-1.8c-0.7-0.7-1.2-1.5-1.6-2.5c-0.4-0.9-0.6-2-0.6-3.2c0-1.3,0.3-2.5,0.9-3.6
			c0.6-1.1,1.4-2.1,2.4-2.9c1-0.8,2.2-1.5,3.6-2C60.8,8.3,62.4,8,64,8c2,0,3.9,0.4,5.7,1.1c1.8,0.8,3.4,1.8,4.8,3l-3,3.7
			c-1.1-0.9-2.3-1.6-3.5-2.1c-1.2-0.5-2.6-0.8-4.1-0.8c-1.7,0-3,0.3-4,1c-1,0.7-1.5,1.6-1.5,2.8c0,0.6,0.2,1.2,0.5,1.6
			c0.3,0.5,0.7,0.9,1.2,1.2c0.5,0.4,1.1,0.7,1.8,0.9c0.7,0.3,1.4,0.6,2.1,0.9l4.3,1.9c1,0.4,2,0.9,2.9,1.4c0.9,0.5,1.6,1.2,2.3,1.9
			c0.6,0.7,1.1,1.5,1.5,2.4c0.4,0.9,0.5,2,0.5,3.2c0,1.3-0.3,2.6-0.8,3.8c-0.6,1.2-1.3,2.2-2.4,3.1c-1,0.9-2.3,1.6-3.8,2.1
			C67,41.7,65.3,42,63.4,42c-2.3,0-4.5-0.4-6.6-1.3c-2.1-0.8-4-2-5.6-3.6L54.6,33.2z"/>
	</g>
	<g>
		<path class="st1" d="M2.2,25l16.4-11.4v2.2l-14.4,10V26l14.4,10v2.2L2.2,26.8V25z"/>
		<path class="st1" d="M97.8,26.8L81.5,38.2v-2.2l14.4-10v-0.2l-14.4-10v-2.2L97.8,25V26.8z"/>
	</g>
</g>
</svg>
