<?xml version="1.0" encoding="UTF-8"?>
<svg viewBox="0 0 72.5 72.5" xmlns="http://www.w3.org/2000/svg">
<style>.st0,.st1{fill:#14b1e7;stroke:#14b1e7;stroke-width:.75;stroke-miterlimit:10}.st1{fill:none;stroke:#17b0e6;stroke-width:2.3}</style>
<path class="st0" d="m23.5 42.5c-3.4 0-6.2-2.8-6.2-6.2s2.8-6.2 6.2-6.2 6.2 2.8 6.2 6.2-2.8 6.2-6.2 6.2zm0-11.1c-2.7 0-4.8 2.2-4.8 4.8s2.2 4.8 4.8 4.8c2.7 0 4.8-2.2 4.8-4.8s-2.2-4.8-4.8-4.8zm21.5 0.9c-3.4 0-6.2-2.8-6.2-6.2s2.8-6.2 6.2-6.2 6.2 2.8 6.2 6.2-2.8 6.2-6.2 6.2zm0-11.1c-2.7 0-4.8 2.2-4.8 4.8 0 2.7 2.2 4.8 4.8 4.8 2.7 0 4.8-2.2 4.8-4.8s-2.1-4.8-4.8-4.8zm0 31.5c-3.4 0-6.2-2.8-6.2-6.2s2.8-6.2 6.2-6.2 6.2 2.8 6.2 6.2-2.8 6.2-6.2 6.2zm0-11.1c-2.7 0-4.8 2.2-4.8 4.8 0 2.7 2.2 4.8 4.8 4.8 2.7 0 4.8-2.2 4.8-4.8s-2.1-4.8-4.8-4.8z"/>
<path class="st0" d="M28 33.7c-.3 0-.5-.2-.6-.4-.2-.4 0-.8.4-.9l11.5-5.1c.4-.2.8 0 .9.4.2.4 0 .8-.4.9l-11.5 5.1H28zM39.5 45.3c-.1 0-.2 0-.3-.1l-11.4-5.3c-.4-.2-.5-.6-.3-.9.2-.4.6-.5.9-.3L39.8 44c.4.2.5.6.3.9-.1.2-.4.4-.6.4z"/>
<circle class="st1" cx="36.2" cy="36.2" r="35.1"/>
</svg>