<svg width="97" height="97" viewBox="0 0 97 97" fill="none" xmlns="http://www.w3.org/2000/svg">
<path d="M48.5 0C21.7 0 0 21.7 0 48.5C0 75.3 21.7 97 48.5 97C75.3 97 97 75.3 97 48.5C97 21.7 75.3 0 48.5 0ZM73.8 71C74.6 71.8 74.6 73 73.8 73.8C73.4 74.2 72.9 74.4 72.4 74.4C71.9 74.4 71.4 74.2 71 73.8L48.5 51.3L26 73.8C25.6 74.2 25.1 74.4 24.6 74.4C24.1 74.4 23.6 74.2 23.2 73.8C22.4 73 22.4 71.8 23.2 71L45.7 48.5L23.2 26C22.4 25.2 22.4 24 23.2 23.2C24 22.4 25.2 22.4 26 23.2L48.5 45.7L71 23.2C71.8 22.4 73 22.4 73.8 23.2C74.6 24 74.6 25.2 73.8 26L51.3 48.5L73.8 71Z" fill="white" fill-opacity="0.9"/>
</svg>
