<svg width="97" height="97" viewBox="0 0 97 97" fill="none" xmlns="http://www.w3.org/2000/svg">
<path fill-rule="evenodd" clip-rule="evenodd" d="M48.5 97C75.2858 97 97 75.2858 97 48.5C97 21.7142 75.2858 0 48.5 0C21.7142 0 0 21.7142 0 48.5C0 75.2858 21.7142 97 48.5 97ZM70.9393 25.9393C70.3536 25.3535 69.4038 25.3535 68.818 25.9393L48.5 46.2573L28.182 25.9393C27.5962 25.3535 26.6465 25.3535 26.0607 25.9393C25.4749 26.5251 25.4749 27.4749 26.0607 28.0606L46.3787 48.3787L23.9393 70.818C23.3536 71.4038 23.3536 72.3535 23.9393 72.9393C24.5251 73.5251 25.4749 73.5251 26.0607 72.9393L48.5 50.5L70.9393 72.9393C71.5251 73.5251 72.4749 73.5251 73.0607 72.9393C73.6465 72.3535 73.6465 71.4038 73.0607 70.818L50.6213 48.3787L70.9393 28.0606C71.5251 27.4749 71.5251 26.5251 70.9393 25.9393Z" fill="white" fill-opacity="0.9"/>
</svg>
