<svg width="70" height="70" viewBox="0 0 70 70" fill="none" xmlns="http://www.w3.org/2000/svg">
<path fill-rule="evenodd" clip-rule="evenodd" d="M35 70C54.33 70 70 54.33 70 35C70 15.67 54.33 0 35 0C15.67 0 0 15.67 0 35C0 54.33 15.67 70 35 70ZM40.6638 25.2203V14.8231L51.1685 25.2203H40.6638ZM39.2468 28.0254C38.4662 28.0254 37.8298 27.3955 37.8298 26.6229V14H19.417C18.6364 14 18 14.6299 18 15.4025V55.5975C18 56.3701 18.6364 57 19.417 57H50.583C51.3636 57 52 56.3701 52 55.5975V28.0254H39.2468ZM36.4128 48.5848H25.0851C24.3045 48.5848 23.6681 47.9549 23.6681 47.1823C23.6681 46.4095 24.3045 45.7797 25.0851 45.7797H36.4128C37.1934 45.7797 37.8298 46.4095 37.8298 47.1823C37.8298 47.9549 37.2019 48.5848 36.4128 48.5848ZM44.9149 42.9746H25.0851C24.3045 42.9746 23.6681 42.3447 23.6681 41.5721C23.6681 40.7994 24.3045 40.1696 25.0851 40.1696H44.9149C45.6955 40.1696 46.3319 40.7994 46.3319 41.5721C46.3319 42.3447 45.6955 42.9746 44.9149 42.9746ZM44.9149 37.3729H25.0851C24.3045 37.3729 23.6681 36.743 23.6681 35.9703C23.6681 35.1976 24.3045 34.5677 25.0851 34.5677H44.9149C45.6955 34.5677 46.3319 35.1976 46.3319 35.9703C46.3319 36.743 45.6955 37.3729 44.9149 37.3729ZM28.2459 25.3C27.8925 24.3667 27.1692 23.9 26.0759 23.9C25.2959 23.9 24.6859 24.13 24.2459 24.59C23.8059 25.05 23.5859 25.6867 23.5859 26.5C23.5859 27.3134 23.8059 27.95 24.2459 28.41C24.6925 28.87 25.3092 29.1 26.0959 29.1C26.6625 29.1 27.1325 28.97 27.5059 28.71C27.8792 28.4434 28.1392 28.0767 28.2859 27.61L27.3059 27.28C27.2392 27.5934 27.1025 27.8334 26.8959 28C26.6892 28.1667 26.4159 28.25 26.0759 28.25C25.6292 28.25 25.2825 28.1 25.0359 27.8C24.7892 27.5 24.6659 27.07 24.6659 26.51C24.6659 25.95 24.7892 25.5167 25.0359 25.21C25.2825 24.9034 25.6292 24.75 26.0759 24.75C26.6825 24.75 27.0725 25.0667 27.2459 25.7L28.2459 25.3ZM30.7118 29H31.8818L33.8718 24H32.7518L31.3018 28.13L29.8918 24H28.7118L30.7118 29Z" fill="white" fill-opacity="0.9"/>
</svg>

