<svg width="53" height="42" viewBox="0 0 53 42" fill="none" xmlns="http://www.w3.org/2000/svg">
<path d="M1.86958 33.8908L31.1025 41.7238C32.0587 41.98 33.1846 41.33 33.4408 40.3738C33.647 39.3309 33.047 38.2917 32.0908 38.0355L7.36574 31.4104L51.6196 5.86043C52.5723 5.31043 52.8151 4.13101 52.3151 3.26498C51.7651 2.31235 50.5857 2.06953 49.7196 2.56953L5.46573 28.1195L12.0408 3.30787C12.247 2.26505 11.647 1.22582 10.6908 0.969604C10.1444 0.823194 9.69797 0.849987 9.17836 1.14999C8.65874 1.44999 8.41233 1.82319 8.26592 2.3696L0.519582 31.5525C0.176763 32.5588 0.826763 33.6846 1.86958 33.8908Z" fill="white"/>
</svg>
