<svg width="70" height="70" viewBox="0 0 70 70" fill="none" xmlns="http://www.w3.org/2000/svg">
<path fill-rule="evenodd" clip-rule="evenodd" d="M35 0C15.6748 0 0 16.0692 0 35.8805C0 51.7296 10.092 65.1572 23.8344 70C25.5522 70.2201 26.1963 69.1195 26.1963 68.239C26.1963 67.3585 26.1963 65.1572 26.1963 62.0755C16.5337 64.2767 14.3865 57.2327 14.3865 57.2327C12.8834 53.0503 10.5215 51.9497 10.5215 51.9497C7.30061 49.7484 10.7362 49.7484 10.7362 49.7484C14.1718 49.9686 16.1043 53.4906 16.1043 53.4906C19.3252 58.9937 24.2638 57.4528 26.1963 56.5723C26.411 54.1509 27.4847 52.6101 28.3436 51.7296C20.6135 50.8491 12.454 47.7673 12.454 33.8994C12.454 29.9371 13.7423 26.8553 16.1043 24.2138C15.8896 23.5535 14.6012 19.8113 16.5337 14.9686C16.5337 14.9686 19.5399 14.0881 26.1963 18.7107C28.9877 17.8302 31.9939 17.6101 35 17.6101C38.0061 17.6101 41.0123 18.0503 43.8037 18.7107C50.4601 14.0881 53.4663 14.9686 53.4663 14.9686C55.3988 19.8113 54.1104 23.5535 53.8957 24.434C56.043 26.8553 57.546 30.1572 57.546 34.1195C57.546 47.9874 49.3865 50.8491 41.6564 51.7296C42.9448 52.8302 44.0184 55.0314 44.0184 58.3333C44.0184 63.1761 44.0184 66.9182 44.0184 68.239C44.0184 69.1195 44.6626 70.2201 46.3804 70C60.3374 65.1572 70.2147 51.7296 70.2147 35.8805C70 16.0692 54.3252 0 35 0Z" fill="white" fill-opacity="0.9"/>
</svg>
