<svg width="70" height="70" viewBox="0 0 70 70" fill="none" xmlns="http://www.w3.org/2000/svg">
<path d="M35 0C15.668 0 0 15.668 0 35C0 54.332 15.668 70 35 70C54.332 70 70 54.332 70 35C70 15.668 54.332 0 35 0ZM24.8281 52.9102H16.3105V27.2617H24.8281V52.9102ZM20.5625 23.7617H20.5078C17.6504 23.7617 15.791 21.793 15.791 19.332C15.791 16.8164 17.6914 14.9023 20.6172 14.9023C23.543 14.9023 25.334 16.8164 25.3887 19.332C25.3887 21.793 23.543 23.7617 20.5625 23.7617ZM55.5625 52.9102H47.0449V39.1973C47.0449 35.752 45.8145 33.4004 42.7246 33.4004C40.373 33.4004 38.9648 34.9863 38.3496 36.5176C38.1309 37.0645 38.0625 37.8301 38.0625 38.5957V52.9102H29.5449C29.5449 52.9102 29.6543 29.668 29.5449 27.2617H38.0625V30.8984C39.1973 29.1484 41.2207 26.6602 45.7461 26.6602C51.3516 26.6602 55.5625 30.3242 55.5625 38.1992V52.9102Z" fill="white" fill-opacity="0.9"/>
</svg>
