<svg width="70" height="70" viewBox="0 0 70 70" fill="none" xmlns="http://www.w3.org/2000/svg">
<path d="M41.6992 35C41.6992 38.7051 38.7051 41.6992 35 41.6992C31.2949 41.6992 28.3008 38.7051 28.3008 35C28.3008 31.2949 31.2949 28.3008 35 28.3008C38.7051 28.3008 41.6992 31.2949 41.6992 35Z" fill="white" fill-opacity="0.9"/>
<path d="M50.668 23.1465C50.3398 22.2715 49.834 21.4785 49.1641 20.8359C48.5215 20.166 47.7285 19.6602 46.8535 19.332C46.1426 19.0586 45.0762 18.7305 43.1211 18.6348C41.002 18.5391 40.3594 18.5117 35 18.5117C29.627 18.5117 28.998 18.5254 26.8789 18.6348C24.9238 18.7305 23.8574 19.0586 23.1465 19.332C22.2715 19.6602 21.4785 20.166 20.8359 20.8359C20.166 21.4785 19.6602 22.2715 19.332 23.1465C19.0586 23.8574 18.7305 24.9238 18.6348 26.8789C18.5391 28.998 18.5117 29.627 18.5117 35C18.5117 40.373 18.5391 41.002 18.6348 43.1211C18.7305 45.0762 19.0449 46.1426 19.332 46.8535C19.6602 47.7285 20.166 48.5215 20.8359 49.1641C21.4785 49.834 22.2715 50.3398 23.1465 50.668C23.8574 50.9414 24.9238 51.2695 26.8789 51.3652C28.998 51.4609 29.627 51.4883 35 51.4883C40.373 51.4883 41.002 51.4746 43.1211 51.3652C45.0762 51.2695 46.1426 50.9551 46.8535 50.668C48.6035 49.998 49.998 48.6035 50.668 46.8535C50.9414 46.1426 51.2695 45.0762 51.3652 43.1211C51.4609 41.002 51.4883 40.3594 51.4883 35C51.4883 29.627 51.4746 28.998 51.3652 26.8789C51.2695 24.9238 50.9414 23.8574 50.668 23.1465ZM35 45.3223C29.2988 45.3223 24.6777 40.7012 24.6777 35C24.6777 29.2988 29.2988 24.6777 35 24.6777C40.7012 24.6777 45.3223 29.2988 45.3223 35C45.3223 40.7012 40.7012 45.3223 35 45.3223ZM45.7324 26.6875C44.4062 26.6875 43.3262 25.6074 43.3262 24.2813C43.3262 22.9551 44.4062 21.875 45.7324 21.875C47.0586 21.875 48.1387 22.9551 48.1387 24.2813C48.1387 25.6074 47.0586 26.6875 45.7324 26.6875Z" fill="white" fill-opacity="0.9"/>
<path d="M35 0C15.668 0 0 15.668 0 35C0 54.332 15.668 70 35 70C54.332 70 70 54.332 70 35C70 15.668 54.332 0 35 0ZM54.9746 43.2852C54.8789 45.418 54.5371 46.8809 54.0449 48.166C53.0059 50.8594 50.873 53.0059 48.166 54.0449C46.8945 54.5371 45.4316 54.8789 43.2852 54.9746C41.1387 55.0703 40.4551 55.0977 35 55.0977C29.5449 55.0977 28.8613 55.0703 26.7148 54.9746C24.582 54.8789 23.1191 54.5371 21.834 54.0449C20.4941 53.5391 19.2773 52.7461 18.2793 51.7207C17.2539 50.7227 16.4609 49.5059 15.9551 48.166C15.4629 46.8945 15.1211 45.4316 15.0254 43.2852C14.9297 41.1387 14.9023 40.4551 14.9023 35C14.9023 29.5449 14.9297 28.8613 15.0254 26.7148C15.1211 24.582 15.4629 23.1191 15.9551 21.834C16.4609 20.4941 17.2539 19.2773 18.2793 18.2793C19.2773 17.2539 20.4941 16.4609 21.834 15.9551C23.1191 15.4629 24.5684 15.1211 26.7148 15.0254C28.8613 14.9297 29.5449 14.9023 35 14.9023C40.4551 14.9023 41.1387 14.9297 43.2852 15.0254C45.418 15.1211 46.8809 15.4629 48.166 15.9551C49.5059 16.4609 50.7227 17.2539 51.7207 18.2793C52.7461 19.2773 53.5391 20.4941 54.0449 21.834C54.5371 23.1191 54.8789 24.5684 54.9746 26.7148C55.0703 28.8613 55.0977 29.5449 55.0977 35C55.0977 40.4551 55.0703 41.1387 54.9746 43.2852Z" fill="white" fill-opacity="0.9"/>
</svg>
